<svg xmlns="http://www.w3.org/2000/svg" viewBox="0 0 108 108" role="img" aria-label="Rfacto">
  <rect width="108" height="108" rx="20" fill="#0B3D2E"/>
  <g transform="translate(14,12) scale(0.80)">
    <path fill="#1A5C45" d="M30,20 H70 C80,20 85,30 85,40 C85,50 80,60 70,60 H50 V80 H30 Z M50,40 H65 C68,40 70,38 70,35 C70,32 68,30 65,30 H50 Z"/>
    <path fill="#2E8B6A" d="M20,60 C10,70 15,85 40,90 C65,95 85,85 90,60 L85,65 C80,80 60,85 40,82 C25,80 20,70 25,65 Z"/>
    <path fill="#FFFFFF" d="M25,45 L45,35 L65,45 L65,65 L45,75 L25,65 Z"/>
    <path fill="#E0E0E0" d="M25,45 L45,55 L65,45 L45,35 Z"/>
    <path fill="#0B3D2E" d="M40,50 L50,45 L50,55 L40,60 Z"/>
  </g>
</svg>
